<svg id="visual" viewBox="0 0 900 600" width="900" height="600" xmlns="http://www.w3.org/2000/svg" xmlns:xlink="http://www.w3.org/1999/xlink" version="1.1"><path d="M0 127L82 193L164 229L245 169L327 217L409 103L491 169L573 127L655 157L736 121L818 247L900 211L900 0L818 0L736 0L655 0L573 0L491 0L409 0L327 0L245 0L164 0L82 0L0 0Z" fill="#00cc8e"></path><path d="M0 217L82 265L164 337L245 235L327 295L409 235L491 241L573 235L655 259L736 241L818 307L900 289L900 209L818 245L736 119L655 155L573 125L491 167L409 101L327 215L245 167L164 227L82 191L0 125Z" fill="#00b98a"></path><path d="M0 301L82 313L164 439L245 277L327 349L409 283L491 289L573 283L655 319L736 289L818 367L900 349L900 287L818 305L736 239L655 257L573 233L491 239L409 233L327 293L245 233L164 335L82 263L0 215Z" fill="#00a784"></path><path d="M0 463L82 499L164 511L245 481L327 517L409 523L491 427L573 457L655 493L736 445L818 445L900 457L900 347L818 365L736 287L655 317L573 281L491 287L409 281L327 347L245 275L164 437L82 311L0 299Z" fill="#00957c"></path><path d="M0 601L82 601L164 601L245 601L327 601L409 601L491 601L573 601L655 601L736 601L818 601L900 601L900 455L818 443L736 443L655 491L573 455L491 425L409 521L327 515L245 479L164 509L82 497L0 461Z" fill="#038373"></path></svg>